# xmcd
#
# Track frame offsets:
# 150
# 18162
# 41377
# 65372
# 95577
# 120145
# 137927
# 163157
# 179045
# 196205
# 214565
#
# Disc length: 3212 seconds
#
#
# Revision: 4
# Processed by: cddbd v1.4PL0 Copyright (c) Steve Scherf et al.
# Submitted via: FreeRIP 2.53 
#
DISCID=920c8a0b
DTITLE=John Lee Hooker - Don't Look Back
DYEAR=1997
DGENRE=Blues
TTITLE0=Dimples
TTITLE1=The Healing Game
TTITLE2=Ain't No Big Thing
TTITLE3=Don't Look Back
TTITLE4=Blues Before Sunrise
TTITLE5=Spellbound
TTITLE6=Travellin' Blues
TTITLE7=I Love You Honey
TTITLE8=Frisco Blues
TTITLE9=Red House
TTITLE10=Rainy Day
EXTD=(c) 1997 Pointblank (Virgin) Records  7243 8 42771 2 3\n\nRecording: Sausalito and Hollywood, CA\n\nJohn Lee Hooker: vocals, guitar\nDavid Hidalgo: guitar\nCesar Rosas: guitar\nSteve Berlin: bari sax\nConrad Lozano: bass\nVictor Bisetti: drums\nJohn
EXTD="Juke" Logan: harmonica\nVan Morrison: vocals, guitar\nDanny Caron: guitar\nCharles Brown: keyboards\nRuth Davies:acoustic bass\nKevin Hayes: drums\nJim Pugh: keyboards\nGregory Davis: trumpet\nRoger Lewis: tenor sax, bari sax\n\nEntry: Mike Lempri
EXTD=ere  mikel@speakeasy.org  15-Apr-1997
EXTT0=
EXTT1=
EXTT2=
EXTT3=
EXTT4=
EXTT5=
EXTT6=
EXTT7=
EXTT8=
EXTT9=
EXTT10=
PLAYORDER=
